<?xml version="1.0" encoding="iso-8859-1"?>
<!-- Uploaded to: SVG Repo, www.svgrepo.com, Generator: SVG Repo Mixer Tools -->
<svg fill="#6211be" height="70px" width="70px" version="1.1" id="Layer_1" xmlns="http://www.w3.org/2000/svg" xmlns:xlink="http://www.w3.org/1999/xlink" 
	 viewBox="0 0 512 512" xml:space="preserve">
<g>
	<g>
		<path d="M495.378,478.755h-7.767V310.876c0-9.181-7.443-16.623-16.623-16.623h-75.129c-9.181,0-16.623,7.443-16.623,16.623
			v167.879h-25.623V193.904c0-9.181-7.443-16.623-16.623-16.623h-75.128c-9.181,0-16.623,7.443-16.623,16.623v284.851h-25.624
			V241.181c0-9.181-7.443-16.623-16.623-16.623h-75.128c-9.181,0-16.623,7.443-16.623,16.623v237.573H34.641
			c-0.769,0-1.394-0.626-1.394-1.395v-54.024H70.38c9.181,0,16.623-7.443,16.623-16.623c0-9.181-7.443-16.623-16.623-16.623H33.247
			v-33.91H70.38c9.181,0,16.623-7.443,16.623-16.623c0-9.181-7.443-16.623-16.623-16.623H33.247v-33.91H70.38
			c9.181,0,16.623-7.443,16.623-16.623c0-9.18-7.443-16.623-16.623-16.623H33.247v-33.91H70.38c9.181,0,16.623-7.443,16.623-16.623
			c0-9.181-7.443-16.623-16.623-16.623H33.247v-33.91H70.38c9.181,0,16.623-7.443,16.623-16.623c0-9.18-7.443-16.623-16.623-16.623
			H33.247V87.557H70.38c9.181,0,16.623-7.443,16.623-16.623S79.559,54.311,70.38,54.311H33.247V16.623
			C33.247,7.443,25.804,0,16.624,0C7.444,0,0.001,7.443,0.001,16.623V477.36C0.001,496.46,15.54,512,34.64,512
			c3.234,0,452.8,0,460.737,0c9.181,0,16.623-7.443,16.623-16.623C511.999,486.198,504.558,478.755,495.378,478.755z"/>
	</g>
</g>
</svg>